<?xml version="1.0" standalone="no"?><!DOCTYPE svg PUBLIC "-//W3C//DTD SVG 1.1//EN" "http://www.w3.org/Graphics/SVG/1.1/DTD/svg11.dtd"><svg t="1593598930005" class="icon" viewBox="0 0 1024 1024" version="1.1" xmlns="http://www.w3.org/2000/svg" p-id="4134" xmlns:xlink="http://www.w3.org/1999/xlink" width="74" height="74"><defs><style type="text/css"></style></defs><path d="M75.894154 44.347077h301.174154c50.176 0 75.303385 25.088 75.303384 75.303385v301.174153c0 50.176-25.127385 75.264-75.303384 75.264H75.894154c-50.215385 0-75.303385-25.088-75.303385-75.264V119.650462c0-50.215385 25.088-75.303385 75.303385-75.303385zM75.894154 571.392h301.174154c50.176 0 75.303385 25.088 75.303384 75.303385v301.174153c0 50.176-25.127385 75.303385-75.303384 75.303385H75.894154c-50.215385 0-75.303385-25.127385-75.303385-75.303385V646.695385c0-50.215385 25.088-75.303385 75.303385-75.303385zM505.580308 217.009231L700.297846 22.252308a75.303385 75.303385 0 0 1 106.456616 0l194.717538 194.678154a75.303385 75.303385 0 0 1 0 106.496l-194.717538 194.717538a75.303385 75.303385 0 0 1-106.456616 0l-194.717538-194.717538a75.303385 75.303385 0 0 1 0-106.496zM558.867692 270.178462l194.717539 194.717538 194.678154-194.717538-194.678154-194.717539-194.717539 194.717539zM602.978462 571.392h301.134769c50.215385 0 75.303385 25.088 75.303384 75.303385v301.174153c0 50.176-25.088 75.303385-75.303384 75.303385H602.978462c-50.176 0-75.303385-25.127385-75.303385-75.303385V646.695385c0-50.215385 25.127385-75.303385 75.303385-75.303385z" p-id="4135"></path></svg>