<?xml version="1.0" standalone="no"?><!DOCTYPE svg PUBLIC "-//W3C//DTD SVG 1.1//EN" "http://www.w3.org/Graphics/SVG/1.1/DTD/svg11.dtd"><svg t="1593597863579" class="icon" viewBox="0 0 1024 1024" version="1.1" xmlns="http://www.w3.org/2000/svg" p-id="4648" xmlns:xlink="http://www.w3.org/1999/xlink" width="74" height="74"><defs><style type="text/css"></style></defs><path d="M872.96 8.192H149.504c-46.592 0-82.432 35.84-82.432 80.896v864.256c0 10.752 2.56 22.528 8.192 33.28 10.752 21.504 33.28 34.816 59.904 34.816 10.752 0 22.528-4.096 28.16-5.12L493.568 890.88c6.656-2.56 11.776-4.096 18.432-4.096 5.12 0 11.776 2.56 17.408 4.096l331.776 124.928c5.12 1.536 17.408 5.12 26.624 5.12 26.624 0 48.128-11.776 58.368-33.28 5.12-9.216 9.216-19.968 9.216-34.816V89.088c0-46.592-35.84-80.896-82.432-80.896z m-104.448 420.352l-94.72 92.16L696.32 650.24c2.56 25.088 1.024 38.4-6.144 45.568-8.192 8.192-21.504 11.776-34.816 11.776-11.776 0-22.528-2.56-31.232-7.168L506.88 639.488l-117.248 60.928c-3.584 1.024-32.256 14.336-51.712 0-11.776-8.192-15.36-26.624-11.776-50.176l22.528-129.536-97.28-92.16c-13.312-13.312-17.92-32.256-13.312-50.176 4.608-17.92 20.48-32.256 39.424-34.816l129.536-17.92 57.344-117.248c4.608-10.752 13.312-17.92 21.504-21.504 22.528-11.776 52.736-2.56 66.048 21.504L609.28 325.632l129.536 17.92c18.944 2.56 34.816 15.36 41.984 34.816 5.632 17.92 0.512 36.864-12.288 50.176z" p-id="4649"></path></svg>