<?xml version="1.0" standalone="no"?><!DOCTYPE svg PUBLIC "-//W3C//DTD SVG 1.1//EN" "http://www.w3.org/Graphics/SVG/1.1/DTD/svg11.dtd"><svg t="1594624254340" class="icon" viewBox="0 0 1024 1024" version="1.1" xmlns="http://www.w3.org/2000/svg" p-id="4759" xmlns:xlink="http://www.w3.org/1999/xlink" width="74" height="74"><defs><style type="text/css">html, * { user-select: text !important; }
</style></defs><path d="M188 255.4c-4.9 0-8.9 4-8.9 8.9v348.6c0 2.4 0.9 4.7 2.6 6.4 1.7 1.7 4 2.6 6.3 2.6h298c7.9-96.1 80.2-174.5 175.4-190.2l0.2 0.1V264.3c0-2.4-1-4.7-2.6-6.3-1.7-1.7-4-2.6-6.4-2.6H188zM944.8 635h-18.4c-9.1-0.5-16.9-6.4-20-14.9L895 593.5c-4-8.2-2.5-18.1 3.6-24.8l13.3-13.3c6.1-6.2 6.1-16.1 0-22.2l-22.1-22c-2.9-2.9-6.9-4.6-11.1-4.6-4.2 0-8.1 1.7-11.1 4.6l-13.3 13.6c-6.8 6.2-16.6 7.7-24.9 3.7l-26.1-10.8c-8.6-3-14.5-10.9-15-20v-19c-0.3-8.4-7.2-15.2-15.6-15.2h-31.2c-8.3 0.3-15 6.9-15.2 15.2v18.8c-0.5 9.1-6.4 16.9-14.9 20l-26.7 11c-8.2 4-18.1 2.5-24.8-3.7l-13.6-13.3c-2.9-2.9-6.9-4.6-11.1-4.6-4.2 0-8.1 1.7-11.1 4.6l-21.9 22c-2.9 2.9-4.6 6.9-4.6 11.1 0 4.2 1.7 8.1 4.6 11.1l13.3 13.3c6.1 6.7 7.6 16.4 3.7 24.6l-10.8 26.2c-3.1 8.5-11 14.4-20 14.9h-19c-4.2 0-8.2 1.7-11.1 4.6-2.9 2.9-4.6 6.9-4.6 11.1v31.2c0.1 8.6 7.1 15.6 15.7 15.6H588c9 0.6 16.9 6.5 20 15l10.8 26.2c4.2 8.3 2.9 18.3-3.4 25.2l-13.3 13.3c-2.9 2.9-4.6 6.9-4.6 11.1 0 4.2 1.7 8.1 4.6 11.1l22.1 22.2c6.1 6 16 6 22.1 0l13.4-13.4c6.7-6.1 16.5-7.6 24.7-3.6l26.3 10.8c8.5 3.1 14.4 11 14.9 20v18.6c0 4.2 1.7 8.2 4.6 11.1 2.9 2.9 6.9 4.6 11.1 4.6h31.2c8.6-0.1 15.6-7.1 15.6-15.7v-18.4c0.5-9.1 6.5-16.9 15-20l26.2-10.8c8.2-4 18.1-2.5 24.8 3.6l13.3 13.4c6.1 6 16 6 22.1 0l22.1-22.2c2.9-2.9 4.6-6.9 4.6-11.1 0-4.2-1.7-8.1-4.6-11.1l-13.3-13.5c-6.2-6.7-7.6-16.6-3.7-24.8l10.8-26.2c3.1-8.5 11-14.4 20-14.9h18.7c8.6-0.1 15.6-7.1 15.6-15.7v-31.2c0.4-8.6-6.4-15.6-14.9-15.8z m-132.4 86.6a78.19 78.19 0 0 1-55.3 22.9c-31.7 0-60.2-19.1-72.3-48.3a78.27 78.27 0 0 1 17-85.3c22.4-22.4 56.1-29 85.3-16.9 29.2 12.1 48.3 40.7 48.2 72.4 0 20.7-8.3 40.6-22.9 55.2z" p-id="4760"></path><path d="M553.3 828.4h-83.8V728.3c19.3-1.1 34.2-17.6 33.1-36.9-1-19.3-17.6-34.2-36.9-33.1H134.1V217.9h601.1v150.2c0 19.3 15.7 35 35 35s35-15.7 35-35V182.9c0-9.3-3.7-18.2-10.3-24.8-6.6-6.6-15.5-10.3-24.8-10.2H98.9c-19.3 0.1-34.9 15.7-34.9 35v511.3c0 9.3 3.7 18.2 10.3 24.8 6.6 6.6 15.5 10.3 24.8 10.3h227.5v99.2h-83.5c-3.2 0-6.2 1.3-8.5 3.5-2.2 2.3-3.5 5.3-3.5 8.5v23.8c0 3.2 1.3 6.2 3.5 8.4s5.3 3.5 8.4 3.5h310.3c3.2 0 6.2-1.3 8.4-3.5s3.5-5.3 3.5-8.4v-23.8c0-3.2-1.2-6.2-3.5-8.5-2.1-2.3-5.2-3.6-8.4-3.6z" p-id="4761"></path></svg>